<svg xmlns="http://www.w3.org/2000/svg" xmlns:xlink="http://www.w3.org/1999/xlink" width="280.000mm" height="220.000mm" viewBox="-490.000000 140.000000 280.000000 220.000000">
    <rect transform="matrix(-1,0,0,1,-350,250)" style="stroke:#ffd2ad;stroke-width:0.05mm;fill:none" x="-140" y="-110" width="280" height="220" rx="5"/>
    <path transform="matrix(-1,0,0,1,-281.237,-45.0005)" style="stroke:#ffd2ad;stroke-width:0.05mm;fill:none" d="M67.320496,320L58.660252,315L61.546993,310L55.773502,300L50,300L50.000004,310L41.33976,315L44.226501,320L41.339752,325L50.000004,330L58.660248,325L61.547001,330L67.320496,330L67.320496,320z"/>
    <path transform="matrix(-0.5,-0.866025,-0.866025,0.5,-55.09,163.300995)" style="stroke:#ffd2ad;stroke-width:0.05mm;fill:none" d="M67.320496,320L58.660252,315L61.546993,310L55.773502,300L50,300L50.000004,310L41.33976,315L44.226501,320L41.339752,325L50.000004,330L58.660248,325L61.547001,330L67.320496,330L67.320496,320z"/>
    <path transform="matrix(1,0,0,-1,-398.558014,564.999023)" style="stroke:#ffd2ad;stroke-width:0.05mm;fill:none" d="M67.320496,320L58.660252,315L61.546993,310L55.773502,300L50,300L50.000004,310L41.33976,315L44.226501,320L41.339752,325L50.000004,330L58.660248,325L61.547001,330L67.320496,330L67.320496,320z"/>
    <path transform="matrix(-0.5,-0.866025,-0.866025,0.5,-20.4489,143.300995)" style="stroke:#ffd2ad;stroke-width:0.05mm;fill:none" d="M67.320496,320L58.660252,315L61.546993,310L55.773502,300L50,300L50.000004,310L41.33976,315L44.226501,320L41.339752,325L50.000004,330L58.660248,325L61.547001,330L67.320496,330L67.320496,320z"/>
    <path transform="matrix(0.5,-0.866025,-0.866025,-0.5,-70.448898,493.300995)" style="stroke:#ffd2ad;stroke-width:0.05mm;fill:none" d="M67.320496,320L58.660252,315L61.546993,310L55.773502,300L50,300L50.000004,310L41.33976,315L44.226501,320L41.339752,325L50.000004,330L58.660248,325L61.547001,330L67.320496,330L67.320496,320z"/>
    <path transform="matrix(0.5,-0.866026,0.866026,0.5,-607.38501,163.300995)" style="stroke:#ffd2ad;stroke-width:0.05mm;fill:none" d="M67.320496,320L58.660252,315L61.546993,310L55.773502,300L50,300L50.000004,310L41.33976,315L44.226501,320L41.339752,325L50.000004,330L58.660248,325L61.547001,330L67.320496,330L67.320496,320z"/>
    <path transform="matrix(0.5,-0.866026,-0.866026,-0.5,-53.128399,463.299988)" style="stroke:#ffd2ad;stroke-width:0.05mm;fill:none" d="M67.320496,320L58.660252,315L61.546993,310L55.773502,300L50,300L50.000004,310L41.33976,315L44.226501,320L41.339752,325L50.000004,330L58.660248,325L61.547001,330L67.320496,330L67.320496,320z"/>
    <path transform="matrix(0.5,0.866025,0.866025,-0.5,-590.064026,396.697998)" style="stroke:#ffd2ad;stroke-width:0.05mm;fill:none" d="M67.320496,320L58.660252,315L61.546993,310L55.773502,300L50,300L50.000004,310L41.33976,315L44.226501,320L41.339752,325L50.000004,330L58.660248,325L61.547001,330L67.320496,330L67.320496,320z"/>
    <path transform="matrix(0.499999,-0.866026,-0.866026,-0.499999,-35.807701,513.299988)" style="stroke:#ffd2ad;stroke-width:0.05mm;fill:none" d="M67.320496,320L58.660252,315L61.546993,310L55.773502,300L50,300L50.000004,310L41.33976,315L44.226501,320L41.339752,325L50.000004,330L58.660248,325L61.547001,330L67.320496,330L67.320496,320z"/>
    <path transform="matrix(0.5,-0.866026,-0.866026,-0.5,-87.768898,503.299988)" style="stroke:#ffd2ad;stroke-width:0.05mm;fill:none" d="M67.320496,320L58.660252,315L61.546993,310L55.773502,300L50,300L50.000004,310L41.33976,315L44.226501,320L41.339752,325L50.000004,330L58.660248,325L61.547001,330L67.320496,330L67.320496,320z"/>
    <path transform="matrix(-0.5,-0.866025,-0.866025,0.5,-55.089901,183.300995)" style="stroke:#ffd2ad;stroke-width:0.05mm;fill:none" d="M67.320496,320L58.660252,315L61.546993,310L55.773502,300L50,300L50.000004,310L41.33976,315L44.226501,320L41.339752,325L50.000004,330L58.660248,325L61.547001,330L67.320496,330L67.320496,320z"/>
    <path transform="matrix(-0.5,-0.866026,0.866026,-0.5,-609.346985,463.299988)" style="stroke:#ffd2ad;stroke-width:0.05mm;fill:none" d="M67.320496,320L58.660252,315L61.546993,310L55.773502,300L50,300L50.000004,310L41.33976,315L44.226501,320L41.339752,325L50.000004,330L58.660248,325L61.547001,330L67.320496,330L67.320496,320z"/>
    <path transform="matrix(-1,-0.000001,0.000001,-1,-281.238007,634.999023)" style="stroke:#ffd2ad;stroke-width:0.05mm;fill:none" d="M67.320496,320L58.660252,315L61.546993,310L55.773502,300L50,300L50.000004,310L41.33976,315L44.226501,320L41.339752,325L50.000004,330L58.660248,325L61.547001,330L67.320496,330L67.320496,320z"/>
    <path transform="matrix(-1,0,-0,-1,-229.278,645.000977)" style="stroke:#ffd2ad;stroke-width:0.05mm;fill:none" d="M67.320496,320L58.660252,315L61.546993,310L55.773502,300L50,300L50.000004,310L41.33976,315L44.226501,320L41.339752,325L50.000004,330L58.660248,325L61.547001,330L67.320496,330L67.320496,320z"/>
    <path transform="matrix(-0.5,0.866026,0.866026,0.5,-574.705017,26.697599)" style="stroke:#ffd2ad;stroke-width:0.05mm;fill:none" d="M67.320496,320L58.660252,315L61.546993,310L55.773502,300L50,300L50.000004,310L41.33976,315L44.226501,320L41.339752,325L50.000004,330L58.660248,325L61.547001,330L67.320496,330L67.320496,320z"/>
    <path transform="matrix(-0.5,-0.866025,-0.866025,0.5,-3.12839,193.300995)" style="stroke:#ffd2ad;stroke-width:0.05mm;fill:none" d="M67.320496,320L58.660252,315L61.546993,310L55.773502,300L50,300L50.000004,310L41.33976,315L44.226501,320L41.339752,325L50.000004,330L58.660248,325L61.547001,330L67.320496,330L67.320496,320z"/>
    <path transform="matrix(-0.5,0.866026,0.866026,0.5,-505.423004,106.697998)" style="stroke:#ffd2ad;stroke-width:0.05mm;fill:none" d="M67.320496,320L58.660252,315L61.546993,310L55.773502,300L50,300L50.000004,310L41.33976,315L44.226501,320L41.339752,325L50.000004,330L58.660248,325L61.547001,330L67.320496,330L67.320496,320z"/>
    <path transform="matrix(-1,0,0,1,-263.916992,4.99937)" style="stroke:#ffd2ad;stroke-width:0.05mm;fill:none" d="M67.320496,320L58.660252,315L61.546993,310L55.773502,300L50,300L50.000004,310L41.33976,315L44.226501,320L41.339752,325L50.000004,330L58.660248,325L61.547001,330L67.320496,330L67.320496,320z"/>
    <path transform="matrix(-1,0.000001,0.000001,1,-211.955994,-25.0005)" style="stroke:#ffd2ad;stroke-width:0.05mm;fill:none" d="M67.320496,320L58.660252,315L61.546993,310L55.773502,300L50,300L50.000004,310L41.33976,315L44.226501,320L41.339752,325L50.000004,330L58.660248,325L61.547001,330L67.320496,330L67.320496,320z"/>
    <path transform="matrix(-0.5,0.866025,0.866025,0.5,-505.423004,46.6982)" style="stroke:#ffd2ad;stroke-width:0.05mm;fill:none" d="M67.320496,320L58.660252,315L61.546993,310L55.773502,300L50,300L50.000004,310L41.33976,315L44.226501,320L41.339752,325L50.000004,330L58.660248,325L61.547001,330L67.320496,330L67.320496,320z"/>
    <path transform="matrix(0.499999,-0.866026,-0.866026,-0.499999,-35.8078,453.299988)" style="stroke:#ffd2ad;stroke-width:0.05mm;fill:none" d="M67.320496,320L58.660252,315L61.546993,310L55.773502,300L50,300L50.000004,310L41.33976,315L44.226501,320L41.339752,325L50.000004,330L58.660248,325L61.547001,330L67.320496,330L67.320496,320z"/>
    <path transform="matrix(1,-0,-0,-1,-329.276001,584.999023)" style="stroke:#ffd2ad;stroke-width:0.05mm;fill:none" d="M67.320496,320L58.660252,315L61.546993,310L55.773502,300L50,300L50.000004,310L41.33976,315L44.226501,320L41.339752,325L50.000004,330L58.660248,325L61.547001,330L67.320496,330L67.320496,320z"/>
    <path transform="matrix(0.5,0.866025,0.866025,-0.5,-607.38501,346.697998)" style="stroke:#ffd2ad;stroke-width:0.05mm;fill:none" d="M67.320496,320L58.660252,315L61.546993,310L55.773502,300L50,300L50.000004,310L41.33976,315L44.226501,320L41.339752,325L50.000004,330L58.660248,325L61.547001,330L67.320496,330L67.320496,320z"/>
    <path transform="matrix(-1,0.000001,0.000001,1,-298.558014,4.99986)" style="stroke:#ffd2ad;stroke-width:0.05mm;fill:none" d="M67.320496,320L58.660252,315L61.546993,310L55.773502,300L50,300L50.000004,310L41.33976,315L44.226501,320L41.339752,325L50.000004,330L58.660248,325L61.547001,330L67.320496,330L67.320496,320z"/>
    <path transform="matrix(-0.500001,-0.866025,-0.866025,0.500001,48.833,163.300003)" style="stroke:#ffd2ad;stroke-width:0.05mm;fill:none" d="M67.320496,320L58.660252,315L61.546993,310L55.773502,300L50,300L50.000004,310L41.33976,315L44.226501,320L41.339752,325L50.000004,330L58.660248,325L61.547001,330L67.320496,330L67.320496,320z"/>
    <path transform="matrix(0.5,-0.866026,-0.866026,-0.5,-105.089996,433.299988)" style="stroke:#ffd2ad;stroke-width:0.05mm;fill:none" d="M67.320496,320L58.660252,315L61.546993,310L55.773502,300L50,300L50.000004,310L41.33976,315L44.226501,320L41.339752,325L50.000004,330L58.660248,325L61.547001,330L67.320496,330L67.320496,320z"/>
    <path transform="matrix(-1,0,0,1,-229.276001,-95.000603)" style="stroke:#ffd2ad;stroke-width:0.05mm;fill:none" d="M67.320496,320L58.660252,315L61.546993,310L55.773502,300L50,300L50.000004,310L41.33976,315L44.226501,320L41.339752,325L50.000004,330L58.660248,325L61.547001,330L67.320496,330L67.320496,320z"/>
    <path transform="matrix(-1,0,0,1,-211.955994,-85.000603)" style="stroke:#ffd2ad;stroke-width:0.05mm;fill:none" d="M67.320496,320L58.660252,315L61.546993,310L55.773502,300L50,300L50.000004,310L41.33976,315L44.226501,320L41.339752,325L50.000004,330L58.660248,325L61.547001,330L67.320496,330L67.320496,320z"/>
    <path transform="matrix(-1,0,-0,-1,-194.634995,544.999023)" style="stroke:#ffd2ad;stroke-width:0.05mm;fill:none" d="M67.320496,320L58.660252,315L61.546993,310L55.773502,300L50,300L50.000004,310L41.33976,315L44.226501,320L41.339752,325L50.000004,330L58.660248,325L61.547001,330L67.320496,330L67.320496,320z"/>
    <path transform="matrix(-1,0,0,1,-211.955002,14.9995)" style="stroke:#ffd2ad;stroke-width:0.05mm;fill:none" d="M67.320496,320L58.660252,315L61.546993,310L55.773502,300L50,300L50.000004,310L41.33976,315L44.226501,320L41.339752,325L50.000004,330L58.660248,325L61.547001,330L67.320496,330L67.320496,320z"/>
    <path transform="matrix(-0.5,-0.866026,-0.866026,0.5,31.512699,93.300598)" style="stroke:#ffd2ad;stroke-width:0.05mm;fill:none" d="M67.320496,320L58.660252,315L61.546993,310L55.773502,300L50,300L50.000004,310L41.33976,315L44.226501,320L41.339752,325L50.000004,330L58.660248,325L61.547001,330L67.320496,330L67.320496,320z"/>
    <path transform="matrix(1,-0,-0,-1,-346.596008,514.999023)" style="stroke:#ffd2ad;stroke-width:0.05mm;fill:none" d="M67.320496,320L58.660252,315L61.546993,310L55.773502,300L50,300L50.000004,310L41.33976,315L44.226501,320L41.339752,325L50.000004,330L58.660248,325L61.547001,330L67.320496,330L67.320496,320z"/>
    <path transform="matrix(0.500001,0.866026,0.866026,-0.500001,-607.38501,326.697998)" style="stroke:#ffd2ad;stroke-width:0.05mm;fill:none" d="M67.320496,320L58.660252,315L61.546993,310L55.773502,300L50,300L50.000004,310L41.33976,315L44.226501,320L41.339752,325L50.000004,330L58.660248,325L61.547001,330L67.320496,330L67.320496,320z"/>
    <path transform="matrix(0.5,0.866026,-0.866026,0.5,-70.448898,-3.30211)" style="stroke:#ffd2ad;stroke-width:0.05mm;fill:none" d="M67.320496,320L58.660252,315L61.546993,310L55.773502,300L50,300L50.000004,310L41.33976,315L44.226501,320L41.339752,325L50.000004,330L58.660248,325L61.547001,330L67.320496,330L67.320496,320z"/>
    <path transform="matrix(-1,0.000001,0.000001,1,-281.238007,-105.000999)" style="stroke:#ffd2ad;stroke-width:0.05mm;fill:none" d="M67.320496,320L58.660252,315L61.546993,310L55.773502,300L50,300L50.000004,310L41.33976,315L44.226501,320L41.339752,325L50.000004,330L58.660248,325L61.547001,330L67.320496,330L67.320496,320z"/>
    <path transform="matrix(0.500001,0.866026,0.866026,-0.500001,-659.346985,316.697998)" style="stroke:#ffd2ad;stroke-width:0.05mm;fill:none" d="M67.320496,320L58.660252,315L61.546993,310L55.773502,300L50,300L50.000004,310L41.33976,315L44.226501,320L41.339752,325L50.000004,330L58.660248,325L61.547001,330L67.320496,330L67.320496,320z"/>
    <path transform="matrix(0.5,-0.866025,-0.866025,-0.5,-1.16699,413.299988)" style="stroke:#ffd2ad;stroke-width:0.05mm;fill:none" d="M67.320496,320L58.660252,315L61.546993,310L55.773502,300L50,300L50.000004,310L41.33976,315L44.226501,320L41.339752,325L50.000004,330L58.660248,325L61.547001,330L67.320496,330L67.320496,320z"/>
    <path transform="matrix(-0.5,-0.866026,-0.866026,0.5,-72.410896,113.300003)" style="stroke:#ffd2ad;stroke-width:0.05mm;fill:none" d="M67.320496,320L58.660252,315L61.546993,310L55.773502,300L50,300L50.000004,310L41.33976,315L44.226501,320L41.339752,325L50.000004,330L58.660248,325L61.547001,330L67.320496,330L67.320496,320z"/>
    <path transform="matrix(-0.5,-0.866026,-0.866026,0.5,-72.410896,133.300003)" style="stroke:#ffd2ad;stroke-width:0.05mm;fill:none" d="M67.320496,320L58.660252,315L61.546993,310L55.773502,300L50,300L50.000004,310L41.33976,315L44.226501,320L41.339752,325L50.000004,330L58.660248,325L61.547001,330L67.320496,330L67.320496,320z"/>
    <path transform="matrix(0.5,-0.866026,-0.866026,-0.5,-139.731003,413.299988)" style="stroke:#ffd2ad;stroke-width:0.05mm;fill:none" d="M67.320496,320L58.660252,315L61.546993,310L55.773502,300L50,300L50.000004,310L41.33976,315L44.226501,320L41.339752,325L50.000004,330L58.660248,325L61.547001,330L67.320496,330L67.320496,320z"/>
    <path transform="matrix(0.500001,-0.866026,0.866026,0.500001,-676.666992,83.299896)" style="stroke:#ffd2ad;stroke-width:0.05mm;fill:none" d="M67.320496,320L58.660252,315L61.546993,310L55.773502,300L50,300L50.000004,310L41.33976,315L44.226501,320L41.339752,325L50.000004,330L58.660248,325L61.547001,330L67.320496,330L67.320496,320z"/>
    <path transform="matrix(0.5,-0.866026,-0.866026,-0.5,-157.050995,423.299988)" style="stroke:#ffd2ad;stroke-width:0.05mm;fill:none" d="M67.320496,320L58.660252,315L61.546993,310L55.773502,300L50,300L50.000004,310L41.33976,315L44.226501,320L41.339752,325L50.000004,330L58.660248,325L61.547001,330L67.320496,330L67.320496,320z"/>
    <path transform="matrix(1,-0.000001,-0.000001,-1,-450.519012,554.999023)" style="stroke:#ffd2ad;stroke-width:0.05mm;fill:none" d="M67.320496,320L58.660252,315L61.546993,310L55.773502,300L50,300L50.000004,310L41.33976,315L44.226501,320L41.339752,325L50.000004,330L58.660248,325L61.547001,330L67.320496,330L67.320496,320z"/>
    <path transform="matrix(0.5,-0.866026,-0.866026,-0.5,-174.371994,433.299988)" style="stroke:#ffd2ad;stroke-width:0.05mm;fill:none" d="M67.320496,320L58.660252,315L61.546993,310L55.773502,300L50,300L50.000004,310L41.33976,315L44.226501,320L41.339752,325L50.000004,330L58.660248,325L61.547001,330L67.320496,330L67.320496,320z"/>
    <path transform="matrix(0.500001,0.866026,0.866026,-0.500001,-728.629028,316.697998)" style="stroke:#ffd2ad;stroke-width:0.05mm;fill:none" d="M67.320496,320L58.660252,315L61.546993,310L55.773502,300L50,300L50.000004,310L41.33976,315L44.226501,320L41.339752,325L50.000004,330L58.660248,325L61.547001,330L67.320496,330L67.320496,320z"/>
    <path transform="matrix(-0.5,0.866026,0.866026,0.5,-695.948975,-3.30232)" style="stroke:#ffd2ad;stroke-width:0.05mm;fill:none" d="M67.320496,320L58.660252,315L61.546993,310L55.773502,300L50,300L50.000004,310L41.33976,315L44.226501,320L41.339752,325L50.000004,330L58.660248,325L61.547001,330L67.320496,330L67.320496,320z"/>
    <path transform="matrix(-0.500001,-0.866026,-0.866026,0.500001,-141.692993,113.300003)" style="stroke:#ffd2ad;stroke-width:0.05mm;fill:none" d="M67.320496,320L58.660252,315L61.546993,310L55.773502,300L50,300L50.000004,310L41.33976,315L44.226501,320L41.339752,325L50.000004,330L58.660248,325L61.547001,330L67.320496,330L67.320496,320z"/>
    <path transform="matrix(-1,0,0,1,-350.519989,-125.001999)" style="stroke:#ffd2ad;stroke-width:0.05mm;fill:none" d="M67.320496,320L58.660252,315L61.546993,310L55.773502,300L50,300L50.000004,310L41.33976,315L44.226501,320L41.339752,325L50.000004,330L58.660248,325L61.547001,330L67.320496,330L67.320496,320z"/>
    <path transform="matrix(-1,0,0,1,-333.199005,-55.001301)" style="stroke:#ffd2ad;stroke-width:0.05mm;fill:none" d="M67.320496,320L58.660252,315L61.546993,310L55.773502,300L50,300L50.000004,310L41.33976,315L44.226501,320L41.339752,325L50.000004,330L58.660248,325L61.547001,330L67.320496,330L67.320496,320z"/>
    <path transform="matrix(0.500001,0.866026,0.866026,-0.500001,-711.307983,366.697998)" style="stroke:#ffd2ad;stroke-width:0.05mm;fill:none" d="M67.320496,320L58.660252,315L61.546993,310L55.773502,300L50,300L50.000004,310L41.33976,315L44.226501,320L41.339752,325L50.000004,330L58.660248,325L61.547001,330L67.320496,330L67.320496,320z"/>
    <path transform="matrix(-1,0,0,1,-246.598999,15.0009)" style="stroke:#ffd2ad;stroke-width:0.05mm;fill:none" d="M67.320496,320L58.660252,315L61.546993,310L55.773502,300L50,300L50.000004,310L41.33976,315L44.226501,320L41.339752,325L50.000004,330L58.660248,325L61.547001,330L67.320496,330L67.320496,320z"/>
    <path transform="matrix(0.500001,-0.866026,0.866026,0.500001,-728.629028,133.300003)" style="stroke:#ffd2ad;stroke-width:0.05mm;fill:none" d="M67.320496,320L58.660252,315L61.546993,310L55.773502,300L50,300L50.000004,310L41.33976,315L44.226501,320L41.339752,325L50.000004,330L58.660248,325L61.547001,330L67.320496,330L67.320496,320z"/>
    <path transform="matrix(1,-0,-0,-1,-398.558014,504.998993)" style="stroke:#ffd2ad;stroke-width:0.05mm;fill:none" d="M67.320496,320L58.660252,315L61.546993,310L55.773502,300L50,300L50.000004,310L41.33976,315L44.226501,320L41.339752,325L50.000004,330L58.660248,325L61.547001,330L67.320496,330L67.320496,320z"/>
    <path transform="matrix(0.5,0.866026,0.866026,-0.5,-624.705017,296.697998)" style="stroke:#ffd2ad;stroke-width:0.05mm;fill:none" d="M67.320496,320L58.660252,315L61.546993,310L55.773502,300L50,300L50.000004,310L41.33976,315L44.226501,320L41.339752,325L50.000004,330L58.660248,325L61.547001,330L67.320496,330L67.320496,320z"/>
    <path transform="matrix(-1,-0,0,-1,-350.519989,614.999023)" style="stroke:#ffd2ad;stroke-width:0.05mm;fill:none" d="M67.320496,320L58.660252,315L61.546993,310L55.773502,300L50,300L50.000004,310L41.33976,315L44.226501,320L41.339752,325L50.000004,330L58.660248,325L61.547001,330L67.320496,330L67.320496,320z"/>
    <path transform="matrix(-0.5,0.866026,0.866026,0.5,-626.666992,76.6987)" style="stroke:#ffd2ad;stroke-width:0.05mm;fill:none" d="M67.320496,320L58.660252,315L61.546993,310L55.773502,300L50,300L50.000004,310L41.33976,315L44.226501,320L41.339752,325L50.000004,330L58.660248,325L61.547001,330L67.320496,330L67.320496,320z"/>
    <path transform="matrix(-1,0.000001,0.000001,1,-315.877991,-5.00011)" style="stroke:#ffd2ad;stroke-width:0.05mm;fill:none" d="M67.320496,320L58.660252,315L61.546993,310L55.773502,300L50,300L50.000004,310L41.33976,315L44.226501,320L41.339752,325L50.000004,330L58.660248,325L61.547001,330L67.320496,330L67.320496,320z"/>
    <path transform="matrix(-0.5,0.866026,0.866026,0.5,-678.625977,126.699997)" style="stroke:#ffd2ad;stroke-width:0.05mm;fill:none" d="M67.320496,320L58.660252,315L61.546993,310L55.773502,300L50,300L50.000004,310L41.33976,315L44.226501,320L41.339752,325L50.000004,330L58.660248,325L61.547001,330L67.320496,330L67.320496,320z"/>
    <path transform="matrix(0.5,-0.866026,-0.866026,-0.5,-157.052002,483.299988)" style="stroke:#ffd2ad;stroke-width:0.05mm;fill:none" d="M67.320496,320L58.660252,315L61.546993,310L55.773502,300L50,300L50.000004,310L41.33976,315L44.226501,320L41.339752,325L50.000004,330L58.660248,325L61.547001,330L67.320496,330L67.320496,320z"/>
    <path transform="matrix(-1,-0,-0,1,-385.15799,-24.999201)" style="stroke:#ffd2ad;stroke-width:0.05mm;fill:none" d="M67.320496,320L58.660252,315L61.546993,310L55.773502,300L50,300L50.000004,310L41.33976,315L44.226501,320L41.339752,325L50.000004,330L58.660248,325L61.547001,330L67.320496,330L67.320496,320z"/>
    <path transform="matrix(-0.5,-0.866026,-0.866026,0.5,-124.370003,163.302002)" style="stroke:#ffd2ad;stroke-width:0.05mm;fill:none" d="M67.320496,320L58.660252,315L61.546993,310L55.773502,300L50,300L50.000004,310L41.33976,315L44.226501,320L41.339752,325L50.000004,330L58.660248,325L61.547001,330L67.320496,330L67.320496,320z"/>
    <path transform="matrix(-1,0,0,1,-333.199005,-15)" style="stroke:#ffd2ad;stroke-width:0.05mm;fill:none" d="M67.320496,320L58.660252,315L61.546993,310L55.773502,300L50,300L50.000004,310L41.33976,315L44.226501,320L41.339752,325L50.000004,330L58.660248,325L61.547001,330L67.320496,330L67.320496,320z"/>
    <path transform="matrix(-1,-0,-0,1,-367.838013,-14.9993)" style="stroke:#ffd2ad;stroke-width:0.05mm;fill:none" d="M67.320496,320L58.660252,315L61.546993,310L55.773502,300L50,300L50.000004,310L41.33976,315L44.226501,320L41.339752,325L50.000004,330L58.660248,325L61.547001,330L67.320496,330L67.320496,320z"/>
    <path transform="matrix(0.5,0.866025,0.866025,-0.5,-745.947021,426.700012)" style="stroke:#ffd2ad;stroke-width:0.05mm;fill:none" d="M67.320496,320L58.660252,315L61.546993,310L55.773502,300L50,300L50.000004,310L41.33976,315L44.226501,320L41.339752,325L50.000004,330L58.660248,325L61.547001,330L67.320496,330L67.320496,320z"/>
    <path transform="matrix(-0.499999,0.866026,0.866026,0.499999,-661.307007,116.702003)" style="stroke:#ffd2ad;stroke-width:0.05mm;fill:none" d="M67.320496,320L58.660252,315L61.546993,310L55.773502,300L50,300L50.000004,310L41.33976,315L44.226501,320L41.339752,325L50.000004,330L58.660248,325L61.547001,330L67.320496,330L67.320496,320z"/>
    <path transform="matrix(0.500001,0.866025,0.866025,-0.500001,-693.987,436.699005)" style="stroke:#ffd2ad;stroke-width:0.05mm;fill:none" d="M67.320496,320L58.660252,315L61.546993,310L55.773502,300L50,300L50.000004,310L41.33976,315L44.226501,320L41.339752,325L50.000004,330L58.660248,325L61.547001,330L67.320496,330L67.320496,320z"/>
    <path transform="matrix(0.5,-0.866027,-0.866027,-0.5,-191.692001,463.299988)" style="stroke:#ffd2ad;stroke-width:0.05mm;fill:none" d="M67.320496,320L58.660252,315L61.546993,310L55.773502,300L50,300L50.000004,310L41.33976,315L44.226501,320L41.339752,325L50.000004,330L58.660248,325L61.547001,330L67.320496,330L67.320496,320z"/>
    <path transform="matrix(0.499999,-0.866026,-0.866026,-0.499999,-122.410004,543.301025)" style="stroke:#ffd2ad;stroke-width:0.05mm;fill:none" d="M67.320496,320L58.660252,315L61.546993,310L55.773502,300L50,300L50.000004,310L41.33976,315L44.226501,320L41.339752,325L50.000004,330L58.660248,325L61.547001,330L67.320496,330L67.320496,320z"/>
    <path transform="matrix(0.5,-0.866027,-0.866027,-0.5,-209.011002,473.302002)" style="stroke:#ffd2ad;stroke-width:0.05mm;fill:none" d="M67.320496,320L58.660252,315L61.546993,310L55.773502,300L50,300L50.000004,310L41.33976,315L44.226501,320L41.339752,325L50.000004,330L58.660248,325L61.547001,330L67.320496,330L67.320496,320z"/>
    <path transform="matrix(-1,-0,0,-1,-402.479004,605.000977)" style="stroke:#ffd2ad;stroke-width:0.05mm;fill:none" d="M67.320496,320L58.660252,315L61.546993,310L55.773502,300L50,300L50.000004,310L41.33976,315L44.226501,320L41.339752,325L50.000004,330L58.660248,325L61.547001,330L67.320496,330L67.320496,320z"/>
    <path transform="matrix(-0.500001,-0.866026,-0.866026,0.500001,-159.011002,223.302002)" style="stroke:#ffd2ad;stroke-width:0.05mm;fill:none" d="M67.320496,320L58.660252,315L61.546993,310L55.773502,300L50,300L50.000004,310L41.33976,315L44.226501,320L41.339752,325L50.000004,330L58.660248,325L61.547001,330L67.320496,330L67.320496,320z"/>
    <path transform="matrix(-0.5,0.866026,0.866026,0.5,-713.268005,106.699997)" style="stroke:#ffd2ad;stroke-width:0.05mm;fill:none" d="M67.320496,320L58.660252,315L61.546993,310L55.773502,300L50,300L50.000004,310L41.33976,315L44.226501,320L41.339752,325L50.000004,330L58.660248,325L61.547001,330L67.320496,330L67.320496,320z"/>
    <path transform="matrix(0.500001,0.866026,0.866026,-0.500001,-728.629028,296.696991)" style="stroke:#ffd2ad;stroke-width:0.05mm;fill:none" d="M67.320496,320L58.660252,315L61.546993,310L55.773502,300L50,300L50.000004,310L41.33976,315L44.226501,320L41.339752,325L50.000004,330L58.660248,325L61.547001,330L67.320496,330L67.320496,320z"/>
    <path transform="matrix(-1,0.000001,0.000001,1,-402.481995,-75.001099)" style="stroke:#ffd2ad;stroke-width:0.05mm;fill:none" d="M67.320496,320L58.660252,315L61.546993,310L55.773502,300L50,300L50.000004,310L41.33976,315L44.226501,320L41.339752,325L50.000004,330L58.660248,325L61.547001,330L67.320496,330L67.320496,320z"/>
    <path transform="matrix(-0.499999,-0.866025,-0.866025,0.499999,31.512501,73.300697)" style="stroke:#ffd2ad;stroke-width:0.05mm;fill:none" d="M67.320496,320L58.660252,315L61.546993,310L55.773502,300L50,300L50.000004,310L41.33976,315L44.226501,320L41.339752,325L50.000004,330L58.660248,325L61.547001,330L67.320496,330L67.320496,320z"/>
    <path transform="matrix(0.500001,-0.866026,0.866026,0.500001,-745.948975,63.299301)" style="stroke:#ffd2ad;stroke-width:0.05mm;fill:none" d="M67.320496,320L58.660252,315L61.546993,310L55.773502,300L50,300L50.000004,310L41.33976,315L44.226501,320L41.339752,325L50.000004,330L58.660248,325L61.547001,330L67.320496,330L67.320496,320z"/>
    <path transform="matrix(0.5,0.866026,0.866026,-0.5,-763.27002,296.696991)" style="stroke:#ffd2ad;stroke-width:0.05mm;fill:none" d="M67.320496,320L58.660252,315L61.546993,310L55.773502,300L50,300L50.000004,310L41.33976,315L44.226501,320L41.339752,325L50.000004,330L58.660248,325L61.547001,330L67.320496,330L67.320496,320z"/>
    <path transform="matrix(1,-0.000001,-0.000001,-1,-519.801025,534.999023)" style="stroke:#ffd2ad;stroke-width:0.05mm;fill:none" d="M67.320496,320L58.660252,315L61.546993,310L55.773502,300L50,300L50.000004,310L41.33976,315L44.226501,320L41.339752,325L50.000004,330L58.660248,325L61.547001,330L67.320496,330L67.320496,320z"/>
    <path transform="matrix(-0.500001,-0.866026,-0.866026,0.500001,-89.730904,63.2999)" style="stroke:#ffd2ad;stroke-width:0.05mm;fill:none" d="M67.320496,320L58.660252,315L61.546993,310L55.773502,300L50,300L50.000004,310L41.33976,315L44.226501,320L41.339752,325L50.000004,330L58.660248,325L61.547001,330L67.320496,330L67.320496,320z"/>
    <path transform="matrix(-0.499999,-0.866026,0.866026,-0.499999,-592.026001,373.299988)" style="stroke:#ffd2ad;stroke-width:0.05mm;fill:none" d="M67.320496,320L58.660252,315L61.546993,310L55.773502,300L50,300L50.000004,310L41.33976,315L44.226501,320L41.339752,325L50.000004,330L58.660248,325L61.547001,330L67.320496,330L67.320496,320z"/>
    <path transform="matrix(0.499999,-0.866026,-0.866026,-0.499999,-122.410004,383.299988)" style="stroke:#ffd2ad;stroke-width:0.05mm;fill:none" d="M67.320496,320L58.660252,315L61.546993,310L55.773502,300L50,300L50.000004,310L41.33976,315L44.226501,320L41.339752,325L50.000004,330L58.660248,325L61.547001,330L67.320496,330L67.320496,320z"/>
    <path transform="matrix(0.499999,-0.866026,-0.866026,-0.499999,-53.127701,383.299988)" style="stroke:#ffd2ad;stroke-width:0.05mm;fill:none" d="M67.320496,320L58.660252,315L61.546993,310L55.773502,300L50,300L50.000004,310L41.33976,315L44.226501,320L41.339752,325L50.000004,330L58.660248,325L61.547001,330L67.320496,330L67.320496,320z"/>
    <path transform="matrix(0.499999,-0.866026,-0.866026,-0.499999,-35.807598,373.299988)" style="stroke:#ffd2ad;stroke-width:0.05mm;fill:none" d="M67.320496,320L58.660252,315L61.546993,310L55.773502,300L50,300L50.000004,310L41.33976,315L44.226501,320L41.339752,325L50.000004,330L58.660248,325L61.547001,330L67.320496,330L67.320496,320z"/>
    <path transform="matrix(1,-0.000001,-0.000001,-1,-467.839996,484.997986)" style="stroke:#ffd2ad;stroke-width:0.05mm;fill:none" d="M67.320496,320L58.660252,315L61.546993,310L55.773502,300L50,300L50.000004,310L41.33976,315L44.226501,320L41.339752,325L50.000004,330L58.660248,325L61.547001,330L67.320496,330L67.320496,320z"/>
    <path transform="matrix(-1,0.000001,0.000001,1,-194.634995,-135.001007)" style="stroke:#ffd2ad;stroke-width:0.05mm;fill:none" d="M67.320496,320L58.660252,315L61.546993,310L55.773502,300L50,300L50.000004,310L41.33976,315L44.226501,320L41.339752,325L50.000004,330L58.660248,325L61.547001,330L67.320496,330L67.320496,320z"/>
    <path transform="matrix(-0.499999,0.866026,0.866026,0.499999,-488.10199,96.698402)" style="stroke:#ffd2ad;stroke-width:0.05mm;fill:none" d="M67.320496,320L58.660252,315L61.546993,310L55.773502,300L50,300L50.000004,310L41.33976,315L44.226501,320L41.339752,325L50.000004,330L58.660248,325L61.547001,330L67.320496,330L67.320496,320z"/>
    <path transform="matrix(-0.500001,-0.866025,-0.866025,0.500001,66.153999,213.300995)" style="stroke:#ffd2ad;stroke-width:0.05mm;fill:none" d="M67.320496,320L58.660252,315L61.546993,310L55.773502,300L50,300L50.000004,310L41.33976,315L44.226501,320L41.339752,325L50.000004,330L58.660248,325L61.547001,330L67.320496,330L67.320496,320z"/>
    <path transform="matrix(-0.500001,0.866025,-0.866025,-0.500001,66.153999,396.697998)" style="stroke:#ffd2ad;stroke-width:0.05mm;fill:none" d="M67.320496,320L58.660252,315L61.546993,310L55.773502,300L50,300L50.000004,310L41.33976,315L44.226501,320L41.339752,325L50.000004,330L58.660248,325L61.547001,330L67.320496,330L67.320496,320z"/>
    <path transform="matrix(0.500001,0.866025,0.866025,-0.500001,-538.10199,366.697998)" style="stroke:#ffd2ad;stroke-width:0.05mm;fill:none" d="M67.320496,320L58.660252,315L61.546993,310L55.773502,300L50,300L50.000004,310L41.33976,315L44.226501,320L41.339752,325L50.000004,330L58.660248,325L61.547001,330L67.320496,330L67.320496,320z"/>
    <path transform="matrix(-1,0.000001,0.000001,1,-177.315002,-125.000999)" style="stroke:#ffd2ad;stroke-width:0.05mm;fill:none" d="M67.320496,320L58.660252,315L61.546993,310L55.773502,300L50,300L50.000004,310L41.33976,315L44.226501,320L41.339752,325L50.000004,330L58.660248,325L61.547001,330L67.320496,330L67.320496,320z"/>
    <path transform="matrix(-1,0.000001,0.000001,1,-177.313995,-85.000298)" style="stroke:#ffd2ad;stroke-width:0.05mm;fill:none" d="M67.320496,320L58.660252,315L61.546993,310L55.773502,300L50,300L50.000004,310L41.33976,315L44.226501,320L41.339752,325L50.000004,330L58.660248,325L61.547001,330L67.320496,330L67.320496,320z"/>
</svg>
